<?xml version="1.0" encoding="UTF-8"?>
<svg id="Layer_2" data-name="Layer 2" xmlns="http://www.w3.org/2000/svg" viewBox="0 0 1760.09 328.08">
  <defs>
    <style>
      .cls-1 {
        fill: #fff;
      }

      .cls-2 {
        fill: #f69844;
      }
    </style>
  </defs>
  <g id="Layer_1-2" data-name="Layer 1">
    <g>
      <path class="cls-2" d="m49.42,105.16c1.76-.3,3.45.85,3.76,2.61.33,1.76-.84,3.45-2.61,3.77-.54.13-6.59.63-8.61.09,4.24,16.93,15.04,15.74,15.59,15.67,1.71-.27,3.4.94,3.68,2.69.28,1.77-.92,3.43-2.69,3.72-.65.04-3.06.17-4.32-.14-.12,5.29.55,10.97,1.25,15.17h0c.7,4.67,7.64,5.11,8.85.53,2.3-9.74,8.78-22.44,16.87-27.31-4.37-1.65-7.34-3.32-7.63-3.49-3.67-2.14-.49-7.71,3.21-5.64.15.09,15.44,8.67,27,5.25,8.25-2.02,14-13.32,10.89-20.99-3.64-10-17.44-15.81-17.58-15.87-3.91-1.64-1.45-7.58,2.47-6,.45.18,7.68,3.23,13.82,9,3.37-3.08,5.71-8.8,1.74-13.02-6.92-9.38-25.35-7.51-28.28-19.98-.33-1.76.82-3.46,2.58-3.79,1.73-.32,3.46.82,3.79,2.58.24,3.99,10.13,6.55,15.1,8.79,2.88-13.91,12.96-15.29,13.43-15.35,4.1-.4,4.95,5.78.8,6.44-.29.04-6.71,1.17-8.21,12.05,11.01,6.75,12.44,18.84,3.34,27.16,2.6,3.56,4.33,8.08,4.35,12.5,16.12,4.46,27.08-4.35,20.26-18.13-2.02-3.73,3.68-6.8,5.7-3.1.08.14.86,1.65,1.57,3.91,2.89-1.97,11.55-8.75,9.19-17.96-3.02-11.77-14.03-13.27-18.59-12.15-6.49,1.6-9.23,8.46-9.25,8.51-1.55,3.97-7.53,1.67-6.06-2.29.15-.41,3.91-10.08,13.76-12.51.9-.22,1.88-.36,2.89-.44-4.8-9.87-17.56-14.59-29.79-10.34,2.53,2.71-.99,6.88-4.1,4.87-16.84-11.56-32.83-5.22-39.54,6.29-2.1,3.7-7.71.52-5.66-3.17.09-.17.97-1.7,2.62-3.73-6.87.89-18.24,4.31-23.28,16.8,4.17-.61,7.37-.26,7.64-.23,4.22.53,3.44,6.95-.78,6.44-10.81-1.1-23.61,4.85-21.31,23.4.86,15.35,13.82,18.81,22.15,17.36Z"/>
      <path class="cls-2" d="m227.11,0H65.5C29.33,0,0,29.33,0,65.5v243.27h227.11c36.18,0,65.5-29.33,65.5-65.5V65.5C292.61,29.33,263.29,0,227.11,0ZM21.11,38.97c10.18-10.95,22.22-19.21,36.07-24.83,16.81-6.82,34.35-9.49,52.4-8.57,17.83.91,34.82,5.25,50.54,13.89,15.19,8.35,27.1,20.14,35.72,35.18,1.37,2.4,2.64,4.84,3.81,7.31-2.52,1.8-5.12,3.72-7.8,5.74-3.1-7.29-7.18-14.09-12.52-20.2-12.23-13.99-27.57-23.07-45.44-28.03-13.86-3.85-27.95-5.26-42.24-3.83-22.75,2.28-43.01,10.34-59.55,26.58-2.46,2.42-4.6,5.17-7.03,7.94-1.54-3.21-3.1-6.39-4.53-9.62-.17-.37.21-1.18.56-1.56Zm13.12,21.33c7.09-27.06,36.38-25.71,36.67-25.69.35.02.67.14.99.26,2.74-1.96,6.09-3.72,10.05-4.72,7.01-1.78,14.49-.86,22.29,2.69,20.22-8.91,38.95-.9,44.74,15.37,6.76,1.82,13.55,6.86,16.03,16.53,3.91,16.07-12.77,26.08-14.28,26.09,1.37,15.01-17.08,21.56-29.65,17.24-3.69,14.2-18.42,19.92-31.64,16.34-2.57,1.36-10.33,5.97-14.12,13.95-5.19,9.62-3.52,19.93-15.35,20.66-13.7-.75-11.9-16.81-12.12-27.62-5.02-2.75-10.42-8.59-12.81-20.9-.01-1.35-3.66-2.01-5.02-3.49-13.87-10.28-12.64-40.79,4.21-46.72Zm101.65,243.14c-6.55,0-11.86-5.31-11.86-11.86s5.31-11.86,11.86-11.86,11.86,5.31,11.86,11.86-5.31,11.86-11.86,11.86Zm97.29-139.68c-1.11,5.06-4.59,7.84-9.3,9.31-1.42.44-2.91.61-4.36.95-2.45.56-3.07,1.6-2.26,4,.62,1.81,1.53,3.52,2.12,5.34,1.24,3.84.37,6.8-2.82,9.25-1.65,1.27-2.03,2.24-.74,4.17,2.28,3.41,1.68,8.33-1.67,11.04-3.74,3.02-3.98,6.49-2.95,10.66,1.22,4.94,1.2,9.89-1.01,14.61-3.64,7.78-10.19,11.62-18.4,11.64-8.64.01-17.28-1.11-25.92-1.75-2.76-.2-5.52-.44-8.29-.66-7.23-.58-11.68,3.62-14.12,8.93-2.72,5.92-3.37,12.29-3.68,18.7-.03.62-.04,1.25-.04,1.88,0,2.16-1.75,3.91-3.92,3.91h-1.6c-2.2,0-3.99-1.81-3.92-4.01,0-.01,0-.03,0-.04.24-6.76.88-13.47,2.77-20.01,2.39-8.27,6.88-14.79,15.18-18.06,5.01-1.97,10.2-1.35,15.37-.79,8.05.87,16.1,1.78,24.17,2.47,11.39.97,15.55-6.57,13.81-15.86-.47-2.49-.73-5.07-.68-7.6.06-3.29,1.68-5.93,4.21-8.06,2.63-2.2,2.8-3.41,1.14-6.45-.88-1.61-2.61-3.27-2.45-4.76.13-1.26,2.47-2.23,3.75-3.43,1.91-1.78,2.3-4,1.57-6.45-.65-2.17-1.47-4.31-1.95-6.52-1.06-4.9,1.32-8.75,6.15-10.12,1.84-.52,3.75-.79,5.61-1.25,3.94-.97,5.15-3.86,2.86-7.2-3.9-5.68-8.08-11.19-11.9-16.92-2.79-4.19-5.34-8.56-7.75-12.98-2.39-4.39-2.54-9.01-.96-13.82,1.78-5.45,1.89-10.9,1.17-16.32,2.77-2.85,5.57-5.64,8.39-8.35.75,3.19,1.34,6.43,1.77,9.73.76,5.74.75,11.49-2.28,16.81-2.06,3.62-.59,6.95,1.42,9.97,4.09,6.16,8.35,12.2,12.56,18.28,2.19,3.15,4.49,6.23,6.62,9.42,2.08,3.12,3.11,6.56,2.29,10.33Zm-83.83,51.35c-3.9-.49-6.21-3.92-6.29-7.97-.17-8.51-.19-17.03.04-25.53.14-5.05,4.03-8.62,9.15-8.76,4.98-.14,9.96-.03,14.95-.03v.11c5.42,0,10.85-.19,16.26.06,4.74.21,8.28,3.93,8.36,8.64.14,8.26.16,16.52-.01,24.78-.11,5.27-4.3,9.26-9.69,9.5-3.71.16-7.44.11-11.16.05-1.26-.02-2.08.41-2.91,1.33-2.02,2.25-4.07,4.5-6.32,6.51-.95.85-2.4,1.41-3.68,1.55-2.49.27-3.97-1-3.85-3.5.19-3.69-.09-6.14-4.84-6.74Zm94.62-129.16c4.34-20.9,3.3-30.29,3.3-30.29-13.69,8.1-27.09,18.84-39.92,31.15-2.83,2.71-5.63,5.5-8.39,8.35-61.16,62.98-107.44,157.22-107.44,157.22-28.35-48.97-67.79-81.23-67.79-81.23,28.12-1.46,63.05,22.51,63.05,22.51,32.14-57.86,74.16-97.26,105.77-121.15,2.68-2.03,5.28-3.94,7.8-5.74,22.35-16.02,37.84-23.4,37.84-23.4-9.55-5.24-31.18-7.32-31.18-7.32,38.55-19.58,67.74-7.11,67.74-7.11-2.34,35.79-30.77,57.02-30.77,57.02Z"/>
      <path class="cls-2" d="m158.2,215.37c.06,1.69.15,3.37.22,5.06.32.2.64.41.96.61.33-.61.56-1.32,1.02-1.82,1.96-2.14,3.89-4.32,6.03-6.26.83-.76,2.19-1.26,3.33-1.31,3.59-.16,7.19-.02,10.78-.05,4.4-.03,6.97-2.49,7.01-6.86.06-7.19.04-14.38-.01-21.57-.02-3.66-2.51-6.12-6.23-6.13-9.33-.04-18.67-.05-28,0-3.72.02-5.96,2.17-6,5.86-.08,7.69-.08,15.39-.01,23.08.03,3.28,2.16,5.34,5.47,5.58.57.04,1.13.02,1.7.05,2.54.12,3.65,1.26,3.73,3.77Zm17.76-21.83c.04-2.56,1.05-3.56,3.38-3.52,1.87.03,2.75,1.09,2.79,3.48.03,1.7,0,3.41,0,5.11h.01c0,1.77.05,3.53-.01,5.3-.07,2.24-1.27,3.62-3.04,3.62-2.07,0-3.14-1.15-3.17-3.58-.04-3.47-.03-6.94.03-10.41Zm-10.03-7.57c.1-1.92,1.27-3.1,2.89-3.07,1.86.03,3,1.11,3.04,3.1.06,3.15.02,6.29.02,9.44h0c0,2.83.02,5.66,0,8.5-.03,2.38-.91,3.47-2.74,3.5-2.13.03-3.13-1.01-3.16-3.54-.06-4.66-.03-9.31-.04-13.97,0-1.32-.07-2.65,0-3.96Zm-9.86,10.97c.05-1.98,1.31-3.14,3.25-3.13,1.91,0,2.9,1.03,2.98,3.1.02.63.01,1.26.02,1.89,0,.57,0,1.13,0,1.7,0,1.26.05,2.52-.01,3.77-.1,2.17-1.18,3.28-3.08,3.29-1.88,0-3.08-1.18-3.13-3.26-.07-2.45-.08-4.91-.02-7.36Z"/>
      <path class="cls-1" d="m158.04,225.35c1.28-.14,2.73-.71,3.68-1.55,2.25-2.01,4.3-4.26,6.32-6.51.83-.92,1.65-1.36,2.91-1.33,3.72.07,7.45.12,11.16-.05,5.39-.24,9.59-4.23,9.69-9.5.17-8.26.15-16.52.01-24.78-.08-4.72-3.62-8.43-8.36-8.64-5.41-.25-10.84-.06-16.26-.06v-.11c-4.98,0-9.97-.11-14.95.03-5.12.14-9.02,3.71-9.15,8.76-.23,8.51-.21,17.02-.04,25.53.08,4.05,2.39,7.48,6.29,7.97,4.75.6,5.03,3.06,4.84,6.74-.13,2.49,1.36,3.77,3.85,3.5Zm-5.28-13.79c-3.31-.24-5.44-2.29-5.47-5.58-.07-7.69-.07-15.39.01-23.08.04-3.69,2.28-5.84,6-5.86,9.33-.04,18.67-.03,28,0,3.72.02,6.2,2.47,6.23,6.13.05,7.19.07,14.38.01,21.57-.03,4.37-2.61,6.83-7.01,6.86-3.59.02-7.19-.11-10.78.05-1.14.05-2.49.55-3.33,1.31-2.14,1.94-4.07,4.12-6.03,6.26-.46.5-.69,1.21-1.02,1.82-.32-.2-.64-.41-.96-.61-.08-1.69-.17-3.37-.22-5.06-.09-2.51-1.19-3.65-3.73-3.77-.57-.03-1.14,0-1.7-.05Z"/>
      <path class="cls-1" d="m165.96,203.91c.03,2.53,1.03,3.57,3.16,3.54,1.83-.03,2.71-1.12,2.74-3.5.03-2.83,0-5.66,0-8.5h0c0-3.15.05-6.29-.02-9.44-.04-1.99-1.18-3.07-3.04-3.1-1.63-.03-2.79,1.15-2.89,3.07-.07,1.32,0,2.64,0,3.96,0,4.66-.02,9.31.04,13.97Z"/>
      <path class="cls-1" d="m179.1,207.53c1.76,0,2.96-1.38,3.04-3.62.06-1.76.01-3.53.01-5.3h-.01c0-1.7.02-3.41,0-5.11-.04-2.38-.92-3.45-2.79-3.48-2.32-.03-3.33.96-3.38,3.52-.06,3.47-.07,6.94-.03,10.41.02,2.42,1.1,3.58,3.17,3.58Z"/>
      <path class="cls-1" d="m159.22,207.57c1.9,0,2.98-1.12,3.08-3.29.06-1.26.01-2.52.01-3.77,0-.57,0-1.13,0-1.7,0-.63,0-1.26-.02-1.89-.08-2.07-1.07-3.09-2.98-3.1-1.94,0-3.21,1.15-3.25,3.13-.06,2.45-.05,4.91.02,7.36.06,2.08,1.25,3.27,3.13,3.26Z"/>
      <path class="cls-1" d="m224.27,144c-4.21-6.08-8.47-12.12-12.56-18.28-2.01-3.02-3.48-6.35-1.42-9.97,3.03-5.32,3.03-11.07,2.28-16.81-.43-3.29-1.03-6.53-1.77-9.73-2.83,2.71-5.63,5.5-8.39,8.35.72,5.42.61,10.87-1.17,16.32-1.57,4.82-1.43,9.43.96,13.82,2.41,4.42,4.95,8.79,7.75,12.98,3.82,5.74,8,11.24,11.9,16.92,2.29,3.34,1.08,6.23-2.86,7.2-1.86.46-3.77.73-5.61,1.25-4.84,1.37-7.21,5.21-6.15,10.12.48,2.21,1.3,4.34,1.95,6.52.73,2.45.34,4.67-1.57,6.45-1.28,1.19-3.61,2.17-3.75,3.43-.16,1.48,1.57,3.15,2.45,4.76,1.66,3.04,1.49,4.25-1.14,6.45-2.54,2.13-4.15,4.77-4.21,8.06-.05,2.53.22,5.11.68,7.6,1.74,9.3-2.42,16.83-13.81,15.86-8.07-.69-16.12-1.59-24.17-2.47-5.18-.56-10.36-1.18-15.37.79-8.3,3.27-12.79,9.79-15.18,18.06-1.89,6.54-2.53,13.25-2.77,20.01,0,.01,0,.03,0,.04-.08,2.2,1.72,4.01,3.92,4.01h1.6c2.16,0,3.91-1.75,3.92-3.91,0-.63.01-1.25.04-1.88.31-6.41.97-12.79,3.68-18.7,2.44-5.31,6.89-9.52,14.12-8.93,2.76.22,5.52.46,8.29.66,8.64.64,17.28,1.76,25.92,1.75,8.21-.01,14.76-3.86,18.4-11.64,2.2-4.72,2.23-9.66,1.01-14.61-1.03-4.17-.79-7.64,2.95-10.66,3.35-2.71,3.95-7.63,1.67-11.04-1.29-1.93-.91-2.9.74-4.17,3.19-2.46,4.06-5.42,2.82-9.25-.59-1.82-1.5-3.53-2.12-5.34-.82-2.4-.19-3.44,2.26-4,1.45-.33,2.95-.51,4.36-.95,4.71-1.46,8.19-4.24,9.3-9.31.83-3.78-.21-7.21-2.29-10.33-2.13-3.19-4.43-6.27-6.62-9.42Z"/>
      <path class="cls-1" d="m25.08,50.15c2.43-2.76,4.56-5.52,7.03-7.94,16.54-16.25,36.8-24.3,59.55-26.58,14.3-1.43,28.39-.02,42.24,3.83,17.86,4.96,33.2,14.05,45.44,28.03,5.34,6.11,9.42,12.9,12.52,20.2,2.68-2.02,5.28-3.94,7.8-5.74-1.17-2.47-2.44-4.91-3.81-7.31-8.61-15.04-20.53-26.83-35.72-35.18-15.72-8.64-32.71-12.98-50.54-13.89-18.04-.92-35.58,1.75-52.4,8.57-13.85,5.62-25.89,13.88-36.07,24.83-.36.39-.73,1.19-.56,1.56,1.44,3.23,3,6.4,4.53,9.62Z"/>
      <path class="cls-1" d="m207,36.05s21.63,2.07,31.18,7.32c0,0-15.49,7.38-37.84,23.4-2.52,1.81-5.12,3.72-7.8,5.74-31.61,23.89-73.63,63.3-105.77,121.15,0,0-34.92-23.97-63.05-22.51,0,0,39.44,32.26,67.79,81.23,0,0,46.28-94.24,107.44-157.22,2.77-2.85,5.57-5.64,8.39-8.35,12.83-12.31,26.23-23.05,39.92-31.15,0,0,1.03,9.38-3.3,30.29,0,0,28.43-21.23,30.77-57.02,0,0-29.19-12.46-67.74,7.11Z"/>
      <path class="cls-1" d="m30.03,107.02c1.36,1.48,5,2.14,5.02,3.49,2.39,12.31,7.79,18.15,12.81,20.9.22,10.81-1.58,26.87,12.12,27.62,11.83-.73,10.15-11.04,15.35-20.66,3.79-7.99,11.55-12.59,14.12-13.95,13.22,3.58,27.96-2.15,31.64-16.34,12.57,4.32,31.02-2.23,29.65-17.24,1.5-.02,18.19-10.02,14.28-26.09-2.48-9.67-9.27-14.71-16.03-16.53-5.79-16.27-24.52-24.28-44.74-15.37-7.8-3.54-15.28-4.47-22.29-2.69-3.96,1.01-7.31,2.76-10.05,4.72-.31-.12-.63-.24-.99-.26-.29-.02-29.58-1.38-36.67,25.69-16.84,5.93-18.08,36.44-4.21,46.72Zm18.55-42.62c4.21.51,5-5.91.78-6.44-.27-.03-3.46-.38-7.64.23,5.03-12.49,16.4-15.91,23.28-16.8-1.65,2.03-2.53,3.56-2.62,3.73-2.04,3.69,3.56,6.87,5.66,3.17,6.71-11.51,22.7-17.85,39.54-6.29,3.11,2.01,6.64-2.15,4.1-4.87,12.23-4.26,25,.47,29.79,10.34-1.01.08-1.99.22-2.89.44-9.85,2.43-13.61,12.1-13.76,12.51-1.47,3.96,4.52,6.27,6.06,2.29.02-.05,2.76-6.91,9.25-8.51,4.56-1.12,15.56.38,18.59,12.15,2.36,9.21-6.3,15.99-9.19,17.96-.72-2.26-1.5-3.78-1.57-3.91-2.02-3.71-7.72-.63-5.7,3.1,6.82,13.78-4.15,22.6-20.26,18.13-.01-4.43-1.74-8.94-4.35-12.5,9.1-8.32,7.67-20.4-3.34-27.16,1.49-10.88,7.92-12.01,8.21-12.05,4.15-.66,3.3-6.83-.8-6.44-.47.05-10.55,1.43-13.43,15.35-4.97-2.24-14.86-4.8-15.1-8.79-.33-1.76-2.06-2.9-3.79-2.58-1.76.33-2.92,2.03-2.58,3.79,2.93,12.47,21.36,10.59,28.28,19.98,3.98,4.22,1.63,9.94-1.74,13.02-6.14-5.77-13.37-8.82-13.82-9-3.92-1.58-6.38,4.36-2.47,6,.14.06,13.94,5.87,17.58,15.87,3.11,7.67-2.64,18.97-10.89,20.99-11.56,3.42-26.85-5.16-27-5.25-3.7-2.07-6.88,3.5-3.21,5.64.29.17,3.26,1.83,7.63,3.49-8.09,4.87-14.57,17.56-16.87,27.31-1.21,4.59-8.14,4.14-8.85-.53h0c-.7-4.2-1.37-9.88-1.25-15.17,1.27.31,3.68.18,4.32.14,1.76-.29,2.97-1.95,2.69-3.72-.28-1.76-1.97-2.96-3.68-2.69-.55.07-11.35,1.26-15.59-15.67,2.02.54,8.07.05,8.61-.09,1.76-.32,2.93-2.01,2.61-3.77-.32-1.76-2-2.91-3.76-2.61-8.33,1.45-21.29-2.01-22.15-17.36-2.3-18.55,10.5-24.5,21.31-23.4Z"/>
      <circle class="cls-1" cx="135.88" cy="291.57" r="11.86"/>
    </g>
    <g>
      <path class="cls-2" d="m382.05,263.61h-28.26V50.76h28.26l73.3,178.99,73.3-178.99h28.85v212.85h-28.26v-109.81c0-7.07.1-13.15.29-18.25.19-5.1.39-9.66.59-13.69.19-4.02.49-7.9.88-11.63l-62.12,153.38h-27.08l-61.82-152.79c.78,5.11,1.32,12.95,1.62,23.55.29,10.6.44,23.36.44,38.27v90.97Z"/>
      <path class="cls-2" d="m615.79,85.5c-4.91,0-9.18-1.81-12.81-5.45-3.63-3.63-5.45-7.9-5.45-12.81s1.81-9.42,5.45-12.95c3.63-3.53,7.9-5.3,12.81-5.3s9.42,1.77,12.95,5.3c3.53,3.53,5.3,7.85,5.3,12.95s-1.77,9.18-5.3,12.81c-3.53,3.63-7.85,5.45-12.95,5.45Zm-13.54,178.11V119.65h27.67v143.96h-27.67Z"/>
      <path class="cls-2" d="m697.63,263.61h-27.67V119.65h25.02l2.94,22.08c4.51-8.24,11.04-14.67,19.58-19.28,8.54-4.61,17.91-6.92,28.11-6.92,18.84,0,32.77,5.4,41.8,16.19,9.03,10.8,13.54,25.42,13.54,43.86v88.02h-27.67v-81.84c0-14.52-3.14-24.97-9.42-31.35-6.28-6.38-14.72-9.57-25.32-9.57-12.95,0-23.01,4.22-30.18,12.66-7.17,8.44-10.74,19.72-10.74,33.86v76.25Z"/>
      <path class="cls-2" d="m896.93,267.14c-13.94,0-25.91-3.19-35.92-9.57-10.01-6.38-17.71-15.26-23.11-26.64-5.4-11.38-8.1-24.33-8.1-38.86s2.75-27.82,8.24-39.3c5.49-11.48,13.34-20.56,23.55-27.23,10.2-6.67,22.37-10.01,36.5-10.01,11.19,0,21.15,2.31,29.88,6.92,8.73,4.61,15.55,11.44,20.46,20.46V46.94h27.38v216.67h-24.73l-2.35-26.2c-4.71,9.62-11.63,16.98-20.76,22.08-9.13,5.1-19.48,7.65-31.06,7.65Zm5.59-25.02c9.42,0,17.52-2.16,24.29-6.48,6.77-4.31,12.02-10.3,15.75-17.96,3.73-7.65,5.59-16.49,5.59-26.5s-1.87-18.79-5.59-26.35c-3.73-7.55-8.98-13.49-15.75-17.81-6.77-4.31-14.87-6.48-24.29-6.48s-17.47,2.21-24.14,6.62c-6.67,4.42-11.78,10.4-15.31,17.96-3.53,7.56-5.3,16.24-5.3,26.05s1.77,18.84,5.3,26.5c3.53,7.65,8.63,13.64,15.31,17.96,6.67,4.32,14.72,6.48,24.14,6.48Z"/>
      <path class="cls-2" d="m1008.21,108.17c0-12.17,3.04-22.86,9.13-32.09,6.08-9.22,14.67-16.39,25.76-21.49,11.09-5.1,23.89-7.65,38.42-7.65,13.54,0,25.36,2.41,35.47,7.21,10.11,4.81,18.05,11.63,23.85,20.46,5.79,8.83,9.07,19.43,9.86,31.79h-29.15c-.79-10.6-4.71-18.84-11.78-24.73-7.07-5.89-16.59-8.83-28.56-8.83-13.35,0-24.04,3.09-32.09,9.27-8.05,6.18-12.07,14.57-12.07,25.17,0,8.64,2.45,15.56,7.36,20.75,4.9,5.2,12.36,8.98,22.37,11.33l35.03,8.24c17.47,3.93,30.57,10.65,39.3,20.17,8.73,9.52,13.1,21.74,13.1,36.65,0,12.76-3.09,23.85-9.27,33.27-6.18,9.42-14.92,16.68-26.2,21.79-11.29,5.1-24.48,7.65-39.6,7.65-14.33,0-26.94-2.41-37.83-7.21-10.89-4.81-19.43-11.67-25.61-20.61-6.18-8.93-9.67-19.38-10.45-31.35h29.44c.19,10.21,4.32,18.3,12.36,24.29,8.04,5.99,18.74,8.98,32.09,8.98,14.13,0,25.36-3.14,33.71-9.42,8.34-6.28,12.51-14.62,12.51-25.02,0-8.44-2.35-15.31-7.07-20.61-4.71-5.3-12.17-9.13-22.37-11.48l-35.03-7.95c-17.27-3.92-30.37-10.84-39.3-20.75-8.93-9.91-13.39-22.52-13.39-37.83Z"/>
      <path class="cls-2" d="m1185.73,328.08V119.65h25.02l2.06,25.91c4.71-10.01,11.73-17.52,21.05-22.52,9.32-5,19.67-7.51,31.06-7.51,13.74,0,25.61,3.19,35.62,9.57,10.01,6.38,17.71,15.21,23.11,26.5,5.4,11.29,8.1,24.29,8.1,39.01s-2.6,27.87-7.8,39.45c-5.2,11.58-12.76,20.71-22.67,27.38-9.91,6.67-22.03,10.01-36.36,10.01-11.58,0-21.89-2.35-30.91-7.06-9.03-4.71-15.9-11.48-20.61-20.31v88.02h-27.67Zm27.97-136.3c0,9.62,1.81,18.3,5.45,26.05,3.63,7.76,8.83,13.79,15.6,18.11,6.77,4.32,14.87,6.48,24.29,6.48s17.47-2.21,24.14-6.62c6.67-4.42,11.82-10.45,15.46-18.11,3.63-7.65,5.45-16.29,5.45-25.91s-1.82-18.84-5.45-26.5c-3.63-7.65-8.79-13.64-15.46-17.96-6.67-4.32-14.72-6.48-24.14-6.48s-17.52,2.16-24.29,6.48c-6.77,4.32-11.97,10.3-15.6,17.96-3.63,7.65-5.45,16.49-5.45,26.5Z"/>
      <path class="cls-2" d="m1424.48,267.14c-13.94,0-26.3-3.19-37.09-9.57-10.8-6.38-19.24-15.21-25.32-26.5-6.09-11.28-9.13-24.38-9.13-39.3s2.99-28.36,8.98-39.74c5.98-11.38,14.23-20.31,24.73-26.79,10.5-6.48,22.71-9.71,36.65-9.71s25.66,2.94,35.77,8.83c10.1,5.89,17.96,14.13,23.55,24.73,5.59,10.6,8.39,23.06,8.39,37.39v10.3l-123.35.29.59-18.55h95.09c0-11.97-3.63-21.59-10.89-28.85-7.26-7.26-16.98-10.89-29.14-10.89-9.23,0-17.13,2.01-23.7,6.03-6.58,4.02-11.58,9.91-15.01,17.66-3.44,7.76-5.15,17.03-5.15,27.82,0,17.27,3.92,30.57,11.78,39.89,7.85,9.32,19.14,13.98,33.86,13.98,10.79,0,19.62-2.16,26.49-6.48,6.87-4.32,11.48-10.6,13.84-18.84h25.91c-3.53,15.31-11.09,27.19-22.67,35.62-11.58,8.44-26.3,12.66-44.16,12.66Z"/>
      <path class="cls-2" d="m1562.55,267.14c-15.31,0-27.33-4.02-36.06-12.07-8.73-8.05-13.1-18.55-13.1-31.5s4.71-23.7,14.13-31.65c9.42-7.95,22.57-12.61,39.45-13.98l45.34-3.53v-4.12c0-8.05-1.47-14.47-4.42-19.28-2.94-4.81-6.97-8.24-12.07-10.3-5.11-2.06-10.89-3.09-17.37-3.09-11.58,0-20.56,2.41-26.94,7.21-6.38,4.81-9.57,11.63-9.57,20.46h-24.14c0-10.01,2.55-18.74,7.65-26.2,5.1-7.46,12.31-13.25,21.64-17.37,9.32-4.12,20.17-6.18,32.53-6.18s22.42,2.11,31.35,6.33c8.93,4.22,15.9,10.6,20.9,19.14,5,8.54,7.51,19.28,7.51,32.24v90.38h-23.55l-2.94-23.26c-3.73,8.24-10.16,14.77-19.28,19.58-9.13,4.81-19.48,7.21-31.06,7.21Zm7.95-21.49c13.15,0,23.45-3.97,30.91-11.92,7.46-7.95,11.19-18.69,11.19-32.24v-7.65l-36.8,2.94c-12.17,1.18-20.95,4.02-26.35,8.54-5.4,4.52-8.1,10.3-8.1,17.37,0,7.65,2.6,13.39,7.8,17.22,5.2,3.83,12.31,5.74,21.34,5.74Z"/>
      <path class="cls-2" d="m1760.09,118.48v25.32h-12.36c-13.15,0-23.5,3.78-31.06,11.33-7.56,7.56-11.33,18.3-11.33,32.24v76.25h-27.67V119.95h25.91l2.36,28.85h-2.65c1.96-9.42,6.67-17.12,14.13-23.11,7.46-5.98,16.78-8.98,27.97-8.98,2.55,0,4.95.15,7.21.44,2.25.29,4.76.74,7.51,1.33Z"/>
    </g>
  </g>
</svg>